:version 1.10
:name ASF
:units
  mass 1
  length 1
  angle deg
:documentation
  ASF file generated by Kaydara
:root
  axis xyz
  order  tx ty tz rx ry rz
  position 0 0 0
  orientation 0 0 0
:bonedata
  begin
    id 1
    name RightUpLegDummy
    direction -1 2.30186e-007 8.31532e-007
    length 4.46685
    axis 0 0 0 xyz
  end
  begin
    id 2
    name RightUpLeg
    direction -2.30187e-007 -1 1.24343e-010
    length 16.4045
    axis -3.49089 -0.000906625 0.000286804 xyz
    dof rx ry rz
  end
  begin
    id 3
    name RightLeg
    direction -2.30181e-007 -1 -4.17157e-009
    length 17.5097
    axis 3.68512 0.0193738 -0.131023 xyz
    dof rx ry rz
  end
  begin
    id 4
    name RightFoot
    direction 8.31421e-007 -4.51202e-011 1
    length 6.49508
    axis 4.81691e-005 -0.120479 -0.188788 xyz
    dof rx ry rz
  end
  begin
    id 5
    name RightToes
    direction 0.00124746 -0.014064 0.9999
    length 3.85082
    axis 0.000481921 0.542163 -0.142578 xyz
    dof rx ry rz
  end
  begin
    id 6
    name SpineDummy
    direction 0.0717043 0.9409 -0.331007
    length 10.0032
    axis 0 0 0 xyz
  end
  begin
    id 7
    name Spine
    direction 2.30186e-007 1 4.58806e-011
    length 9.84055
    axis -0.001389 0.000121418 2.40972e-006 xyz
    dof rx ry rz
  end
  begin
    id 8
    name Spine1
    direction 0 0 0
    length 0
    axis -0.001389 0.000121451 1.30017e-006 xyz
    dof rx ry rz
  end
  begin
    id 9
    name HEadDummy
    direction -0.00347485 0.950688 -0.310128
    length 8.00997
    axis -0.001389 0.000121451 1.30017e-006 xyz
  end
  begin
    id 10
    name HEad
    direction -0.0222688 0.980941 0.193023
    length 5.12695
    axis -0.001389 0.000121451 1.30017e-006 xyz
    dof rx ry rz
  end
  begin
    id 11
    name LeftShoulder1Dummy
    direction 0.988871 0.146793 -0.0242004
    length 3.5792
    axis -0.001389 0.000121451 1.30017e-006 xyz
  end
  begin
    id 12
    name LeftShoulder1
    direction 0.993832 0.108932 0.020779
    length 4.16823
    axis -0.001389 0.000121451 1.30017e-006 xyz
    dof rx ry rz
  end
  begin
    id 13
    name LeftArm
    direction 1 3.44807e-006 -8.31404e-007
    length 9.91437
    axis -23.1894 0.134784 0.967509 xyz
    dof rx ry rz
  end
  begin
    id 14
    name LeftForeArm
    direction 1 3.44842e-006 -8.31581e-007
    length 9.08575
    axis -9.91835 -0.06569 -0.177793 xyz
    dof rx ry rz
  end
  begin
    id 15
    name LeftHand
    direction 0.992938 -0.0411636 0.11126
    length 5.32135
    axis -0.00960232 -0.00340091 0.185173 xyz
    dof rx ry rz
  end
  begin
    id 16
    name RightShoulderDummy
    direction -0.988871 0.146793 -0.0241962
    length 3.5792
    axis -0.001389 0.000121451 1.30017e-006 xyz
  end
  begin
    id 17
    name RightShoulder
    direction -0.993832 0.108933 0.0207785
    length 4.16823
    axis 0.215806 0.000203643 -0.0068026 xyz
    dof rx ry rz
  end
  begin
    id 18
    name RightArm
    direction -1 3.90912e-006 8.31284e-007
    length 9.91437
    axis -23.2009 -0.134239 -0.964101 xyz
    dof rx ry rz
  end
  begin
    id 19
    name RightForeArm
    direction -1 3.90882e-006 8.31502e-007
    length 9.08575
    axis -9.92322 0.0658061 0.178867 xyz
    dof rx ry rz
  end
  begin
    id 20
    name RightHand
    direction -0.992843 -0.0414603 0.112003
    length 5.28593
    axis -0.00960638 0.00330671 -0.185228 xyz
    dof rx ry rz
  end
  begin
    id 21
    name LeftUpLegDummy
    direction 1 -2.30186e-007 -8.31532e-007
    length 4.46685
    axis 0 0 0 xyz
  end
  begin
    id 22
    name LeftUpLeg
    direction -2.30187e-007 -1 6.00931e-010
    length 16.4045
    axis -3.48766 0.00143442 -0.000524262 xyz
    dof rx ry rz
  end
  begin
    id 23
    name LeftLeg
    direction -2.30187e-007 -1 1.6669e-009
    length 17.5097
    axis 3.68178 -0.00654042 -0.000285133 xyz
    dof rx ry rz
  end
  begin
    id 24
    name LeftFoot
    direction 8.31532e-007 -4.54478e-011 1
    length 6.49508
    axis 1.87233e-006 4.66016e-005 -8.6538e-006 xyz
    dof rx ry rz
  end
  begin
    id 25
    name LeftToes
    direction 0.00818058 -0.00485161 0.999955
    length 3.85048
    axis 1.06247e-005 4.65869e-005 -8.65513e-006 xyz
    dof rx ry rz
  end
:hierarchy
  begin
    root RightUpLegDummy SpineDummy LeftUpLegDummy
    RightUpLegDummy RightUpLeg
    RightUpLeg RightLeg
    RightLeg RightFoot
    RightFoot RightToes
    SpineDummy Spine
    Spine Spine1
    Spine1 HEadDummy LeftShoulder1Dummy RightShoulderDummy
    HEadDummy HEad
    LeftShoulder1Dummy LeftShoulder1
    LeftShoulder1 LeftArm
    LeftArm LeftForeArm
    LeftForeArm LeftHand
    RightShoulderDummy RightShoulder
    RightShoulder RightArm
    RightArm RightForeArm
    RightForeArm RightHand
    LeftUpLegDummy LeftUpLeg
    LeftUpLeg LeftLeg
    LeftLeg LeftFoot
    LeftFoot LeftToes
  end

:SAMPLES-PER-SECOND 30
:FULLY-SPECIFIED
:DEGREES
44
root  38.8645 33.1299 33.2982 -175.422 -47.6619 -177.135
RightUpLeg  -7.89034 -1.16034 -12.8009
RightLeg  22.9239 -3.20298 -1.11982
RightFoot  3.50636 0.00970917 -0.087785
RightToes  -39.2683 -0.212665 -0.310952
Spine  4.7668 -0.260516 -0.368831
Spine1  9.13113 -0.0936392 -1.31446
HEad  6.01218 3.94642 7.06891
LeftShoulder1  0 -2.42657e-020 -4.95415e-022
LeftArm  -38.7978 12.6468 -80.4762
LeftForeArm  57.2751 -15.2974 -2.72123
LeftHand  0.308325 -6.1998 -6.0653
RightShoulder  0 2.42657e-020 1.07489e-018
RightArm  -24.833 -16.2318 78.3248
RightForeArm  44.4934 27.5045 5.24642
RightHand  -0.351732 17.7815 -1.87887
LeftUpLeg  -24.5567 -5.86889 7.12457
LeftLeg  30.7436 -8.83309 -4.48942
LeftFoot  -1.94125 0.00400291 0.236258
LeftToes  -23.4955 3.33339e-006 -4.73431e-007
45
root  39.4318 33.012 32.9188 -175.35 -48.1094 -178.125
RightUpLeg  -6.78858 -0.778757 -12.7736
RightLeg  22.3832 -2.90219 -0.984143
RightFoot  3.6704 0.0106946 -0.0904246
RightToes  -45.6302 -0.264948 -0.344667
Spine  4.64425 -0.464292 -0.550697
Spine1  8.96744 -0.545451 -1.57975
HEad  6.96271 3.72682 7.06146
LeftShoulder1  0 -2.42657e-020 -4.95415e-022
LeftArm  -43.1096 14.4213 -80.7641
LeftForeArm  60.0093 -13.932 -2.45894
LeftHand  0.320019 -6.69284 -5.84483
RightShoulder  0 2.42657e-020 1.07489e-018
RightArm  -26.4193 -17.9483 78.4989
RightForeArm  44.689 27.3394 5.20899
RightHand  -0.276054 17.9143 -1.38176
LeftUpLeg  -24.1879 -5.94495 7.57564
LeftLeg  30.5398 -9.35969 -4.71188
LeftFoot  -1.41565 0.00201915 0.163425
LeftToes  -26.0266 3.33339e-006 -4.73431e-007
46
root  40.0751 32.8939 32.4841 -175.512 -48.2992 -178.984
RightUpLeg  -5.73141 -1.36258 -12.3436
RightLeg  21.834 -2.67695 -0.879243
RightFoot  1.51282 0.00418283 0.026254
RightToes  -47.6994 -0.282722 -0.354358
Spine  4.58436 -0.556845 -0.72931
Spine1  8.89176 -0.734553 -1.90593
HEad  7.9343 3.61866 7.09746
LeftShoulder1  0 -2.42657e-020 -4.95415e-022
LeftArm  -46.1564 15.5306 -80.521
LeftForeArm  62.493 -12.6908 -2.22302
LeftHand  0.267311 -6.72374 -4.92314
RightShoulder  0 2.42657e-020 1.07489e-018
RightArm  -27.9053 -18.8604 78.7743
RightForeArm  45.1309 27.3238 5.20481
RightHand  -0.264657 18.0522 -1.2964
LeftUpLeg  -23.4532 -6.01158 8.26484
LeftLeg  29.9391 -9.70723 -4.75843
LeftFoot  -0.811022 0.000420838 0.0594509
LeftToes  -28.614 3.33339e-006 -4.73431e-007
47
root  40.8284 32.8043 31.9997 -176.184 -48.2099 -179.242
RightUpLeg  -4.98876 -3.08528 -11.2806
RightLeg  21.6265 -1.94939 -0.633152
RightFoot  -1.559 -0.00300831 0.156512
RightToes  -44.6182 -0.256386 -0.339696
Spine  4.60958 -0.578733 -0.770725
Spine1  8.95203 -0.755378 -2.02742
HEad  8.8823 3.70452 6.89955
LeftShoulder1  0 -2.42657e-020 -4.95415e-022
LeftArm  -47.9392 16.0227 -80.0538
LeftForeArm  63.5476 -11.7572 -2.04891
LeftHand  0.203242 -6.30211 -4.06497
RightShoulder  0 2.42657e-020 1.07489e-018
RightArm  -28.43 -18.7903 78.8798
RightForeArm  45.2081 27.4507 5.23323
RightHand  -0.352477 17.9154 -1.86651
LeftUpLeg  -22.5587 -5.83512 9.52238
LeftLeg  29.1166 -10.0734 -4.75863
LeftFoot  0.00803939 6.88501e-006 -0.0981899
LeftToes  -30.9266 3.33339e-006 -4.73431e-007
48
root  41.696 32.7402 31.5005 -177.158 -47.7832 -178.942
RightUpLeg  -4.65268 -3.8327 -9.52657
RightLeg  21.4624 -1.76315 -0.567238
RightFoot  -4.25011 -0.00532462 0.234091
RightToes  -40.8709 -0.225478 -0.319989
Spine  4.67898 -0.502489 -0.639498
Spine1  9.07911 -0.572537 -1.84931
HEad  9.50227 4.06977 6.30073
LeftShoulder1  0 -2.42657e-020 -4.95415e-022
LeftArm  -49.493 16.0294 -79.6032
LeftForeArm  64.8771 -11.1098 -1.92745
LeftHand  0.181244 -6.72153 -3.45915
RightShoulder  0 2.42657e-020 1.07489e-018
RightArm  -28.3581 -17.8466 78.7531
RightForeArm  45.2981 27.6484 5.27768
RightHand  -0.470299 18.0031 -2.59909
LeftUpLeg  -21.6146 -5.32578 11.2923
LeftLeg  27.9162 -10.409 -4.65292
LeftFoot  1.19747 0.00356728 -0.341367
LeftToes  -33.1863 3.33339e-006 -4.73431e-007
